<?xml version="1.0" encoding="utf-8"?>
<!-- Generator: Adobe Illustrator 26.2.1, SVG Export Plug-In . SVG Version: 6.00 Build 0)  -->
<svg version="1.1" id="レイヤー_1" xmlns="http://www.w3.org/2000/svg" xmlns:xlink="http://www.w3.org/1999/xlink" x="0px"
	 y="0px" viewBox="0 0 326.2 326.2" style="enable-background:new 0 0 326.2 326.2;" xml:space="preserve">
<style type="text/css">
	.st0{fill:#FFFFFF;}
</style>
<path class="st0" d="M163.1,7.6C73.2,7.6,0,67,0,140c0,65.4,58,120.2,136.4,130.6c19.1,4.1,16.9,11.1,12.6,36.8
	c-0.7,4.1-3.3,16.1,14.1,8.8c17.4-7.3,93.9-55.3,128.2-94.7c23.6-26,34.9-52.3,34.9-81.5C326.2,67,253,7.6,163.1,7.6z M105.5,178.9
	c0,1.8-1.4,3.2-3.2,3.2H56.6c-0.9,0-1.6-0.4-2.2-0.9c-0.6-0.6-0.9-1.3-0.9-2.2v-71.1c0-1.8,1.4-3.2,3.2-3.2h11.4
	c1.8,0,3.2,1.4,3.2,3.2v56.4h31.1h0h0c1.7,0,3.1,1.5,3.1,3.2V178.9z M133.1,179c0,1.8-1.4,3.2-3.2,3.2h-11.4c-1.8,0-3.2-1.4-3.2-3.2
	v-71.1c0-1.8,1.4-3.2,3.2-3.2h11.4c1.8,0,3.2,1.5,3.2,3.2V179z M211.9,179c0,1.8-1.4,3.2-3.2,3.2h-11.4c-1.1,0-2.1-0.6-2.6-1.3
	l-32.6-44v42.2c0,1.8-1.4,3.2-3.2,3.2h-11.4c-1.8,0-3.2-1.4-3.2-3.2V108c0-1.8,1.4-3.2,3.2-3.2h11.3c1,0,2.1,0.5,2.6,1.4l32.6,44
	V108c0-1.8,1.4-3.2,3.2-3.2h11.4c1.8-0.1,3.3,1.4,3.3,3.1V179z M275.1,119.3c0,1.8-1.4,3.2-3.2,3.2h-31.1v12h31.1
	c1.8,0,3.2,1.4,3.2,3.2v11.5c0,1.8-1.4,3.2-3.2,3.2h-31.1v12h31.1c1.8,0,3.2,1.4,3.2,3.2V179c0,1.8-1.4,3.2-3.2,3.2h-45.7
	c-1.8,0-3.2-1.5-3.2-3.2v-71.1c0-1.8,1.5-3.2,3.2-3.2h45.7c1.7,0,3.1,1.5,3.2,3.2V119.3z"/>
</svg>
